<svg width="62" height="62" viewBox="0 0 62 62" fill="none" xmlns="http://www.w3.org/2000/svg">
<path d="M59.7872 4.42857H46.5011C46.4524 4.42857 46.4126 4.45293 46.3661 4.45514C44.9245 1.96629 43.3391 0.595643 43.2239 0.500429C42.8275 0.177143 42.3315 0 41.82 0H20.1793C19.6678 0 19.1717 0.177143 18.7776 0.502643C18.6624 0.597857 17.0748 1.9685 15.6354 4.45736C15.5889 4.45293 15.5491 4.42857 15.5004 4.42857H2.21431C1.58323 4.42857 0.98314 4.6965 0.56463 5.16593C0.143905 5.63536 -0.0553857 6.262 0.0132589 6.88643C0.766135 13.6644 5.69747 26.6777 18.8662 28.5311C20.3011 30.5771 21.995 32.6452 23.9835 34.7377C24.0898 34.8506 24.2315 34.9104 24.3555 34.9968V39.8571H19.9268C18.7045 39.8571 17.7125 40.8469 17.7125 42.0714V48.7143H13.286C12.0637 48.7143 11.0717 49.7041 11.0717 50.9286V59.7857C11.0717 61.0102 12.0637 62 13.286 62H48.7155C49.9378 62 50.9298 61.0102 50.9298 59.7857V50.9286C50.9298 49.7041 49.9378 48.7143 48.7155 48.7143H44.2868V42.0714C44.2868 40.8469 43.2948 39.8571 42.0725 39.8571H37.6438V34.999C37.77 34.9126 37.9095 34.8506 38.0158 34.7399C40.002 32.6496 41.696 30.5793 43.1331 28.5333C56.3018 26.6799 61.2354 13.6666 61.986 6.88864C62.0569 6.26421 61.8554 5.63757 61.4347 5.16814C61.0184 4.6965 60.4183 4.42857 59.7872 4.42857ZM4.87817 8.85714H13.8595C13.6027 9.86021 13.3945 10.9186 13.3214 12.0966C13.0978 15.6639 13.8927 19.3573 15.6864 23.1548C8.53183 20.2585 5.82148 12.7853 4.87817 8.85714ZM46.5011 57.5714H15.5004V53.1429H19.929H42.0725H46.5011V57.5714ZM39.8581 48.7143H22.1434V44.2857H26.5721H35.4294H39.8581V48.7143ZM28.7864 39.8571V35.4286H33.2151V39.8571H28.7864ZM35.4516 31H35.4294H26.5721H26.5499C20.3874 24.3151 17.4224 18.0841 17.7368 12.4686C17.9738 8.20836 20.073 5.48921 21.0672 4.42857H40.9321C41.933 5.49586 44.0277 8.21279 44.2647 12.4709C44.5769 18.0841 41.6119 24.3151 35.4516 31ZM46.324 23.1371C48.1132 19.3462 48.9037 15.6572 48.68 12.0944C48.607 10.9186 48.3988 9.86021 48.1442 8.85714H57.1056C56.1379 12.7654 53.39 20.2297 46.324 23.1371Z" fill="white"/>
</svg>
