<svg width="99" height="35" viewBox="0 0 99 35" fill="none" xmlns="http://www.w3.org/2000/svg">
<g filter="url(#filter0_d_1_14)">
<path d="M38.0282 16.876H39.1622V21.888C39.1249 21.8973 39.0549 21.9207 38.9522 21.958C38.8496 21.986 38.7469 22 38.6442 22C38.4576 22 38.3082 21.944 38.1962 21.832C38.0842 21.7107 38.0282 21.5613 38.0282 21.384V16.876ZM39.1622 18.528L38.0282 18.514V14.104C38.0282 13.9173 38.0842 13.768 38.1962 13.656C38.3082 13.544 38.4576 13.488 38.6442 13.488C38.7469 13.488 38.8496 13.502 38.9522 13.53C39.0549 13.558 39.1249 13.5813 39.1622 13.6V18.528ZM38.6442 18.108V17.156H42.8582C42.8862 17.1933 42.9142 17.254 42.9422 17.338C42.9702 17.422 42.9842 17.5107 42.9842 17.604C42.9842 17.7533 42.9469 17.8747 42.8722 17.968C42.7976 18.0613 42.6902 18.108 42.5502 18.108H38.6442ZM38.6442 22V21.048H43.3622C43.3902 21.0853 43.4182 21.146 43.4462 21.23C43.4742 21.3047 43.4882 21.3933 43.4882 21.496C43.4882 21.6453 43.4509 21.7667 43.3762 21.86C43.3016 21.9533 43.1942 22 43.0542 22H38.6442ZM38.6442 14.454V13.488H43.2922C43.3202 13.5253 43.3482 13.586 43.3762 13.67C43.4042 13.754 43.4182 13.8427 43.4182 13.936C43.4182 14.0853 43.3809 14.2113 43.3062 14.314C43.2316 14.4073 43.1242 14.454 42.9842 14.454H38.6442ZM50.8287 17.73V19.158H49.7087V17.786C49.7087 17.2633 49.5594 16.8807 49.2607 16.638C48.9714 16.3953 48.5794 16.274 48.0847 16.274C47.7114 16.274 47.38 16.3207 47.0907 16.414C46.8014 16.5073 46.554 16.6147 46.3487 16.736V19.158H45.2287V16.792C45.2287 16.596 45.266 16.4373 45.3407 16.316C45.4247 16.1853 45.5647 16.0593 45.7607 15.938C46.0034 15.798 46.3254 15.6673 46.7267 15.546C47.128 15.4153 47.5807 15.35 48.0847 15.35C48.934 15.35 49.6014 15.546 50.0867 15.938C50.5814 16.3207 50.8287 16.918 50.8287 17.73ZM45.2287 18.388H46.3487V21.972C46.302 21.9907 46.232 22.0093 46.1387 22.028C46.0454 22.056 45.9427 22.07 45.8307 22.07C45.6347 22.07 45.4854 22.0327 45.3827 21.958C45.28 21.874 45.2287 21.7433 45.2287 21.566V18.388ZM49.7087 18.388H50.8287V21.972C50.782 21.9907 50.7074 22.0093 50.6047 22.028C50.5114 22.056 50.4134 22.07 50.3107 22.07C50.1054 22.07 49.9514 22.0327 49.8487 21.958C49.7554 21.874 49.7087 21.7433 49.7087 21.566V18.388ZM55.614 21.804C55.0726 21.804 54.5733 21.7013 54.116 21.496C53.6586 21.2813 53.29 20.936 53.01 20.46C52.73 19.984 52.59 19.354 52.59 18.57C52.59 17.8607 52.7253 17.268 52.996 16.792C53.276 16.316 53.6586 15.9567 54.144 15.714C54.6293 15.4713 55.1846 15.35 55.81 15.35C56.2393 15.35 56.6313 15.406 56.986 15.518C57.35 15.6207 57.6533 15.7513 57.896 15.91C58.036 16.0033 58.148 16.1107 58.232 16.232C58.3253 16.344 58.372 16.484 58.372 16.652V20.978H57.252V16.666C57.0933 16.5633 56.8926 16.4747 56.65 16.4C56.4166 16.316 56.1366 16.274 55.81 16.274C55.1846 16.274 54.6806 16.4653 54.298 16.848C53.9153 17.2307 53.724 17.8 53.724 18.556C53.724 19.396 53.9153 19.9933 54.298 20.348C54.69 20.7027 55.1706 20.88 55.74 20.88C56.1506 20.88 56.482 20.81 56.734 20.67C56.986 20.53 57.1866 20.376 57.336 20.208L57.392 21.202C57.252 21.3513 57.028 21.4913 56.72 21.622C56.4213 21.7433 56.0526 21.804 55.614 21.804ZM57.252 22.21V20.74H58.372V22.28C58.372 22.896 58.2366 23.3907 57.966 23.764C57.7046 24.1373 57.3406 24.408 56.874 24.576C56.4166 24.744 55.8986 24.828 55.32 24.828C54.8533 24.828 54.452 24.7767 54.116 24.674C53.78 24.5713 53.5513 24.4873 53.43 24.422C53.15 24.2633 53.01 24.0627 53.01 23.82C53.01 23.6893 53.038 23.5773 53.094 23.484C53.1593 23.4 53.2386 23.3347 53.332 23.288C53.528 23.4373 53.8033 23.5727 54.158 23.694C54.522 23.8247 54.9093 23.89 55.32 23.89C55.9453 23.89 56.4213 23.7547 56.748 23.484C57.084 23.2133 57.252 22.7887 57.252 22.21ZM60.5575 18.304L61.6775 18.472V21.972C61.6308 21.9907 61.5608 22.0093 61.4675 22.028C61.3742 22.056 61.2715 22.07 61.1595 22.07C60.9635 22.07 60.8142 22.0327 60.7115 21.958C60.6088 21.874 60.5575 21.7433 60.5575 21.566V18.304ZM61.6775 19.004L60.5575 18.85V12.928C60.6042 12.9093 60.6742 12.8907 60.7675 12.872C60.8702 12.844 60.9728 12.83 61.0755 12.83C61.2808 12.83 61.4302 12.872 61.5235 12.956C61.6262 13.0307 61.6775 13.1567 61.6775 13.334V19.004ZM63.8202 13.488C63.8202 13.292 63.8902 13.1287 64.0302 12.998C64.1702 12.858 64.3428 12.788 64.5482 12.788C64.7628 12.788 64.9355 12.858 65.0662 12.998C65.1968 13.1287 65.2622 13.292 65.2622 13.488C65.2622 13.684 65.1968 13.852 65.0662 13.992C64.9355 14.1227 64.7628 14.188 64.5482 14.188C64.3428 14.188 64.1702 14.1227 64.0302 13.992C63.8902 13.852 63.8202 13.684 63.8202 13.488ZM63.9882 18.304H65.1082V21.972C65.0615 21.9907 64.9915 22.0093 64.8982 22.028C64.8048 22.056 64.7022 22.07 64.5902 22.07C64.3942 22.07 64.2448 22.0327 64.1422 21.958C64.0395 21.874 63.9882 21.7433 63.9882 21.566V18.304ZM65.1082 18.85H63.9882V15.56C64.0348 15.5413 64.1048 15.5227 64.1982 15.504C64.3008 15.476 64.4082 15.462 64.5202 15.462C64.7162 15.462 64.8608 15.504 64.9542 15.588C65.0568 15.6627 65.1082 15.7933 65.1082 15.98V18.85ZM71.8591 20.278C71.8591 20.8753 71.6398 21.342 71.2011 21.678C70.7625 22.014 70.1278 22.182 69.2971 22.182C68.5878 22.182 68.0091 22.0747 67.5611 21.86C67.1131 21.636 66.8891 21.3933 66.8891 21.132C66.8891 21.02 66.9171 20.9127 66.9731 20.81C67.0385 20.698 67.1318 20.6093 67.2531 20.544C67.5051 20.7213 67.7991 20.8847 68.1351 21.034C68.4711 21.1833 68.8538 21.258 69.2831 21.258C70.2538 21.258 70.7391 20.9313 70.7391 20.278C70.7391 20.0073 70.6551 19.788 70.4871 19.62C70.3285 19.4427 70.0905 19.3167 69.7731 19.242L68.6111 18.934C68.0418 18.794 67.6265 18.5793 67.3651 18.29C67.1038 17.9913 66.9731 17.6227 66.9731 17.184C66.9731 16.6893 67.1738 16.26 67.5751 15.896C67.9765 15.532 68.5878 15.35 69.4091 15.35C69.8478 15.35 70.2305 15.3967 70.5571 15.49C70.8838 15.574 71.1358 15.6907 71.3131 15.84C71.4998 15.98 71.5931 16.134 71.5931 16.302C71.5931 16.4233 71.5605 16.5307 71.4951 16.624C71.4391 16.7173 71.3598 16.7873 71.2571 16.834C71.1451 16.7593 71.0005 16.68 70.8231 16.596C70.6551 16.5027 70.4545 16.428 70.2211 16.372C69.9878 16.3067 69.7311 16.274 69.4511 16.274C69.0405 16.274 68.7091 16.3533 68.4571 16.512C68.2051 16.6707 68.0791 16.8947 68.0791 17.184C68.0791 17.3893 68.1491 17.5713 68.2891 17.73C68.4385 17.8793 68.6718 17.9913 68.9891 18.066L69.9551 18.304C70.5898 18.4533 71.0658 18.6913 71.3831 19.018C71.7005 19.3353 71.8591 19.7553 71.8591 20.278ZM79.1708 19.214H78.0508V17.926C78.0508 17.366 77.8922 16.9507 77.5748 16.68C77.2668 16.4093 76.8655 16.274 76.3708 16.274C76.0068 16.274 75.6662 16.344 75.3488 16.484C75.0408 16.624 74.7795 16.792 74.5648 16.988L74.3548 16.078C74.5788 15.9193 74.8728 15.7607 75.2368 15.602C75.6102 15.434 76.0395 15.35 76.5248 15.35C77.2995 15.35 77.9342 15.56 78.4288 15.98C78.9235 16.4 79.1708 17.0393 79.1708 17.898V19.214ZM73.5848 18.304H74.7048V21.972C74.6582 21.9907 74.5882 22.0093 74.4948 22.028C74.4015 22.056 74.2988 22.07 74.1868 22.07C73.9908 22.07 73.8415 22.0327 73.7388 21.958C73.6362 21.874 73.5848 21.7433 73.5848 21.566V18.304ZM78.0508 18.318L79.1708 18.332V21.972C79.1242 21.9907 79.0495 22.0093 78.9468 22.028C78.8535 22.056 78.7555 22.07 78.6528 22.07C78.4475 22.07 78.2935 22.0327 78.1908 21.958C78.0975 21.874 78.0508 21.7433 78.0508 21.566V18.318ZM74.7048 18.85H73.5848V12.928C73.6315 12.9093 73.7015 12.8907 73.7948 12.872C73.8975 12.844 74.0048 12.83 74.1168 12.83C74.3128 12.83 74.4575 12.872 74.5508 12.956C74.6535 13.0307 74.7048 13.1567 74.7048 13.334V18.85Z" fill="#7469B6"/>
</g>
<g filter="url(#filter1_d_1_14)">
<path d="M86 17L90 22L94 17" stroke="#7469B6" stroke-width="2"/>
</g>
<g filter="url(#filter2_d_1_14)">
<mask id="path-3-outside-1_1_14" maskUnits="userSpaceOnUse" x="17" y="10" width="13" height="16" fill="black">
<rect fill="white" x="17" y="10" width="13" height="16"/>
<path d="M28.2811 13.18C28.2811 13.3533 28.2211 13.5133 28.1011 13.66C27.9944 13.7933 27.8678 13.8933 27.7211 13.96C27.3878 13.72 26.9811 13.4933 26.5011 13.28C26.0344 13.0667 25.4278 12.96 24.6811 12.96C23.8678 12.96 23.1344 13.1467 22.4811 13.52C21.8411 13.8933 21.3278 14.4533 20.9411 15.2C20.5678 15.9333 20.3811 16.8467 20.3811 17.94C20.3811 19.58 20.7811 20.8133 21.5811 21.64C22.3944 22.4667 23.4478 22.88 24.7411 22.88C25.4344 22.88 26.0411 22.78 26.5611 22.58C27.0811 22.38 27.5078 22.1533 27.8411 21.9C27.9744 21.9533 28.1011 22.0533 28.2211 22.2C28.3411 22.3333 28.4011 22.4933 28.4011 22.68C28.4011 22.8133 28.3611 22.9467 28.2811 23.08C28.2144 23.2 28.0944 23.32 27.9211 23.44C27.6144 23.6533 27.1944 23.84 26.6611 24C26.1278 24.1733 25.4478 24.26 24.6211 24.26C23.5144 24.26 22.5078 24.0267 21.6011 23.56C20.7078 23.08 20.0011 22.3733 19.4811 21.44C18.9611 20.5067 18.7011 19.34 18.7011 17.94C18.7011 16.54 18.9678 15.3667 19.5011 14.42C20.0478 13.4733 20.7611 12.7667 21.6411 12.3C22.5344 11.82 23.5078 11.58 24.5611 11.58C25.2944 11.58 25.9411 11.66 26.5011 11.82C27.0611 11.98 27.4944 12.1867 27.8011 12.44C28.1211 12.68 28.2811 12.9267 28.2811 13.18Z"/>
</mask>
<path d="M28.2811 13.18C28.2811 13.3533 28.2211 13.5133 28.1011 13.66C27.9944 13.7933 27.8678 13.8933 27.7211 13.96C27.3878 13.72 26.9811 13.4933 26.5011 13.28C26.0344 13.0667 25.4278 12.96 24.6811 12.96C23.8678 12.96 23.1344 13.1467 22.4811 13.52C21.8411 13.8933 21.3278 14.4533 20.9411 15.2C20.5678 15.9333 20.3811 16.8467 20.3811 17.94C20.3811 19.58 20.7811 20.8133 21.5811 21.64C22.3944 22.4667 23.4478 22.88 24.7411 22.88C25.4344 22.88 26.0411 22.78 26.5611 22.58C27.0811 22.38 27.5078 22.1533 27.8411 21.9C27.9744 21.9533 28.1011 22.0533 28.2211 22.2C28.3411 22.3333 28.4011 22.4933 28.4011 22.68C28.4011 22.8133 28.3611 22.9467 28.2811 23.08C28.2144 23.2 28.0944 23.32 27.9211 23.44C27.6144 23.6533 27.1944 23.84 26.6611 24C26.1278 24.1733 25.4478 24.26 24.6211 24.26C23.5144 24.26 22.5078 24.0267 21.6011 23.56C20.7078 23.08 20.0011 22.3733 19.4811 21.44C18.9611 20.5067 18.7011 19.34 18.7011 17.94C18.7011 16.54 18.9678 15.3667 19.5011 14.42C20.0478 13.4733 20.7611 12.7667 21.6411 12.3C22.5344 11.82 23.5078 11.58 24.5611 11.58C25.2944 11.58 25.9411 11.66 26.5011 11.82C27.0611 11.98 27.4944 12.1867 27.8011 12.44C28.1211 12.68 28.2811 12.9267 28.2811 13.18Z" fill="#FFE6E6"/>
<path d="M28.1011 13.66L27.3271 13.0267L27.3202 13.0353L28.1011 13.66ZM27.7211 13.96L27.1368 14.7715L27.6072 15.1102L28.1349 14.8704L27.7211 13.96ZM26.5011 13.28L26.0853 14.1895L26.095 14.1938L26.5011 13.28ZM22.4811 13.52L21.9849 12.6517L21.9772 12.6562L22.4811 13.52ZM20.9411 15.2L20.0531 14.7401L20.0499 14.7463L20.9411 15.2ZM21.5811 21.64L20.8625 22.3354L20.8683 22.3413L21.5811 21.64ZM27.8411 21.9L28.2125 20.9715L27.6868 20.7612L27.236 21.1038L27.8411 21.9ZM28.2211 22.2L27.4471 22.8332L27.462 22.8515L27.4778 22.869L28.2211 22.2ZM28.2811 23.08L27.4236 22.5655L27.415 22.5798L27.4069 22.5944L28.2811 23.08ZM27.9211 23.44L27.3519 22.6178L27.35 22.6191L27.9211 23.44ZM26.6611 24L26.3737 23.0422L26.3628 23.0454L26.352 23.049L26.6611 24ZM21.6011 23.56L21.1278 24.4409L21.1356 24.4451L21.1435 24.4491L21.6011 23.56ZM19.4811 21.44L20.3547 20.9533L20.3547 20.9533L19.4811 21.44ZM19.5011 14.42L18.6351 13.9199L18.6298 13.9292L19.5011 14.42ZM21.6411 12.3L22.1096 13.1835L22.1144 13.1809L21.6411 12.3ZM26.5011 11.82L26.7758 10.8585L26.7758 10.8585L26.5011 11.82ZM27.8011 12.44L27.1642 13.211L27.1823 13.2259L27.2011 13.24L27.8011 12.44ZM27.2811 13.18C27.2811 13.1485 27.287 13.1128 27.2998 13.0789C27.3121 13.0461 27.3255 13.0288 27.3271 13.0268L28.8751 14.2932C29.1267 13.9857 29.2811 13.6062 29.2811 13.18H27.2811ZM27.3202 13.0353C27.3116 13.046 27.3068 13.0499 27.3065 13.0501C27.3061 13.0504 27.3063 13.0502 27.3067 13.05C27.3072 13.0497 27.3075 13.0495 27.3073 13.0496L28.1349 14.8704C28.4332 14.7348 28.6831 14.5332 28.882 14.2847L27.3202 13.0353ZM28.3054 13.1485C27.9034 12.8591 27.4336 12.6001 26.9072 12.3662L26.095 14.1938C26.5286 14.3866 26.8721 14.5809 27.1368 14.7715L28.3054 13.1485ZM26.9169 12.3705C26.2743 12.0768 25.5111 11.96 24.6811 11.96V13.96C25.3444 13.96 25.7946 14.0566 26.0853 14.1895L26.9169 12.3705ZM24.6811 11.96C23.7082 11.96 22.8015 12.1852 21.985 12.6518L22.9772 14.3882C23.4673 14.1082 24.0273 13.96 24.6811 13.96V11.96ZM21.9772 12.6562C21.1522 13.1375 20.5149 13.8485 20.0531 14.7401L21.8291 15.6599C22.1407 15.0582 22.53 14.6492 22.985 14.3838L21.9772 12.6562ZM20.0499 14.7463C19.5855 15.6586 19.3811 16.7386 19.3811 17.94H21.3811C21.3811 16.9547 21.55 16.2081 21.8323 15.6537L20.0499 14.7463ZM19.3811 17.94C19.3811 19.7287 19.8174 21.2555 20.8625 22.3354L22.2997 20.9446C21.7448 20.3712 21.3811 19.4313 21.3811 17.94H19.3811ZM20.8683 22.3413C21.8921 23.3819 23.2136 23.88 24.7411 23.88V21.88C23.6819 21.88 22.8968 21.5514 22.2939 20.9387L20.8683 22.3413ZM24.7411 23.88C25.5283 23.88 26.2613 23.7667 26.9201 23.5133L26.2021 21.6467C25.8209 21.7933 25.3406 21.88 24.7411 21.88V23.88ZM26.9201 23.5133C27.501 23.2899 28.0176 23.0219 28.4462 22.6962L27.236 21.1038C26.9979 21.2848 26.6612 21.4701 26.2021 21.6467L26.9201 23.5133ZM27.4697 22.8285C27.4369 22.8154 27.4193 22.8022 27.4164 22.7999C27.4142 22.7981 27.4252 22.8065 27.4471 22.8332L28.9951 21.5668C28.8011 21.3297 28.5451 21.1046 28.2125 20.9715L27.4697 22.8285ZM27.4778 22.869C27.4584 22.8474 27.4358 22.814 27.4198 22.7711C27.4039 22.7289 27.4011 22.6955 27.4011 22.68H29.4011C29.4011 22.2573 29.2569 21.856 28.9644 21.531L27.4778 22.869ZM27.4011 22.68C27.4011 22.6451 27.4065 22.6151 27.4133 22.5927C27.4197 22.5711 27.4258 22.5619 27.4236 22.5655L29.1386 23.5945C29.2961 23.3319 29.4011 23.0228 29.4011 22.68H27.4011ZM27.4069 22.5944C27.4279 22.5566 27.4431 22.5438 27.434 22.5529C27.4251 22.5617 27.4005 22.5841 27.3519 22.6178L28.4903 24.2622C28.7285 24.0973 28.9848 23.8724 29.1552 23.5656L27.4069 22.5944ZM27.35 22.6191C27.1615 22.7503 26.8505 22.8992 26.3737 23.0422L26.9484 24.9578C27.5384 24.7808 28.0674 24.5564 28.4922 24.2609L27.35 22.6191ZM26.352 23.049C25.9537 23.1784 25.3877 23.26 24.6211 23.26V25.26C25.5078 25.26 26.3018 25.1683 26.9702 24.951L26.352 23.049ZM24.6211 23.26C23.6598 23.26 22.812 23.0586 22.0587 22.6709L21.1435 24.4491C22.2035 24.9948 23.3691 25.26 24.6211 25.26V23.26ZM22.0744 22.6791C21.3586 22.2945 20.7869 21.7291 20.3547 20.9533L18.6075 21.9267C19.2153 23.0176 20.0569 23.8655 21.1278 24.4409L22.0744 22.6791ZM20.3547 20.9533C19.9394 20.2079 19.7011 19.2209 19.7011 17.94H17.7011C17.7011 19.4591 17.9828 20.8054 18.6075 21.9267L20.3547 20.9533ZM19.7011 17.94C19.7011 16.6635 19.9444 15.6705 20.3723 14.9108L18.6298 13.9292C17.9912 15.0628 17.7011 16.4165 17.7011 17.94H19.7011ZM20.3671 14.9201C20.8293 14.1196 21.4114 13.5537 22.1096 13.1835L21.1726 11.4165C20.1108 11.9796 19.2662 12.8271 18.6351 13.9199L20.3671 14.9201ZM22.1144 13.1809C22.8565 12.7822 23.6663 12.58 24.5611 12.58V10.58C23.3492 10.58 22.2123 10.8578 21.1678 11.4191L22.1144 13.1809ZM24.5611 12.58C25.2244 12.58 25.7753 12.6526 26.2264 12.7815L26.7758 10.8585C26.1069 10.6673 25.3645 10.58 24.5611 10.58V12.58ZM26.2264 12.7815C26.7102 12.9198 27.0013 13.0764 27.1642 13.211L28.438 11.669C27.9876 11.297 27.412 11.0402 26.7758 10.8585L26.2264 12.7815ZM27.2011 13.24C27.2479 13.2751 27.2792 13.3033 27.2991 13.3235C27.319 13.3436 27.3244 13.3526 27.3221 13.3492C27.3196 13.3452 27.3087 13.3274 27.2987 13.296C27.2883 13.2636 27.2811 13.2238 27.2811 13.18H29.2811C29.2811 12.4642 28.825 11.9579 28.4011 11.64L27.2011 13.24Z" fill="#7469B6" mask="url(#path-3-outside-1_1_14)"/>
</g>
<g filter="url(#filter3_d_1_14)">
<mask id="path-5-outside-2_1_14" maskUnits="userSpaceOnUse" x="11" y="3" width="12" height="16" fill="black">
<rect fill="white" x="11" y="3" width="12" height="16"/>
<path d="M18.9137 10.02V11.34H13.4137V10.02H18.9137ZM16.6137 11.34L17.2537 10.34C18.1603 10.34 18.9137 10.4933 19.5137 10.8C20.1137 11.0933 20.5603 11.4867 20.8537 11.98C21.1603 12.4733 21.3137 13.0267 21.3137 13.64C21.3137 14.8533 20.8737 15.7533 19.9937 16.34C19.127 16.9267 17.887 17.22 16.2737 17.22C15.9137 17.22 15.5537 17.2067 15.1937 17.18C14.8337 17.1667 14.4803 17.1333 14.1337 17.08C13.787 17.0267 13.4537 16.96 13.1337 16.88C12.5737 16.72 12.2937 16.4133 12.2937 15.96V5.72C12.2937 5.50667 12.347 5.34 12.4537 5.22C12.5737 5.1 12.7403 5.01333 12.9537 4.96C13.407 4.82667 13.887 4.74 14.3937 4.7C14.9137 4.64667 15.467 4.62 16.0537 4.62C17.5603 4.62 18.7337 4.89333 19.5737 5.44C20.4137 5.97333 20.8337 6.79333 20.8337 7.9C20.8337 8.46 20.6937 8.98 20.4137 9.46C20.147 9.92667 19.707 10.3067 19.0937 10.6C18.4937 10.88 17.687 11.02 16.6737 11.02L16.4937 10.02C17.3737 10.02 18.0403 9.84 18.4937 9.48C18.947 9.10667 19.1737 8.59333 19.1737 7.94C19.1737 7.27333 18.907 6.78 18.3737 6.46C17.8537 6.12667 17.0803 5.96 16.0537 5.96C15.6003 5.96 15.2003 5.98 14.8537 6.02C14.507 6.04667 14.187 6.08667 13.8937 6.14V15.66C14.2137 15.7267 14.5803 15.78 14.9937 15.82C15.4203 15.86 15.847 15.88 16.2737 15.88C17.3803 15.88 18.2203 15.6933 18.7937 15.32C19.367 14.9467 19.6537 14.3733 19.6537 13.6C19.6537 12.9067 19.3937 12.36 18.8737 11.96C18.367 11.5467 17.6137 11.34 16.6137 11.34Z"/>
</mask>
<path d="M18.9137 10.02V11.34H13.4137V10.02H18.9137ZM16.6137 11.34L17.2537 10.34C18.1603 10.34 18.9137 10.4933 19.5137 10.8C20.1137 11.0933 20.5603 11.4867 20.8537 11.98C21.1603 12.4733 21.3137 13.0267 21.3137 13.64C21.3137 14.8533 20.8737 15.7533 19.9937 16.34C19.127 16.9267 17.887 17.22 16.2737 17.22C15.9137 17.22 15.5537 17.2067 15.1937 17.18C14.8337 17.1667 14.4803 17.1333 14.1337 17.08C13.787 17.0267 13.4537 16.96 13.1337 16.88C12.5737 16.72 12.2937 16.4133 12.2937 15.96V5.72C12.2937 5.50667 12.347 5.34 12.4537 5.22C12.5737 5.1 12.7403 5.01333 12.9537 4.96C13.407 4.82667 13.887 4.74 14.3937 4.7C14.9137 4.64667 15.467 4.62 16.0537 4.62C17.5603 4.62 18.7337 4.89333 19.5737 5.44C20.4137 5.97333 20.8337 6.79333 20.8337 7.9C20.8337 8.46 20.6937 8.98 20.4137 9.46C20.147 9.92667 19.707 10.3067 19.0937 10.6C18.4937 10.88 17.687 11.02 16.6737 11.02L16.4937 10.02C17.3737 10.02 18.0403 9.84 18.4937 9.48C18.947 9.10667 19.1737 8.59333 19.1737 7.94C19.1737 7.27333 18.907 6.78 18.3737 6.46C17.8537 6.12667 17.0803 5.96 16.0537 5.96C15.6003 5.96 15.2003 5.98 14.8537 6.02C14.507 6.04667 14.187 6.08667 13.8937 6.14V15.66C14.2137 15.7267 14.5803 15.78 14.9937 15.82C15.4203 15.86 15.847 15.88 16.2737 15.88C17.3803 15.88 18.2203 15.6933 18.7937 15.32C19.367 14.9467 19.6537 14.3733 19.6537 13.6C19.6537 12.9067 19.3937 12.36 18.8737 11.96C18.367 11.5467 17.6137 11.34 16.6137 11.34Z" fill="#FFE6E6"/>
<path d="M18.9137 10.02H19.9137V9.02H18.9137V10.02ZM18.9137 11.34V12.34H19.9137V11.34H18.9137ZM13.4137 11.34H12.4137V12.34H13.4137V11.34ZM13.4137 10.02V9.02H12.4137V10.02H13.4137ZM16.6137 11.34L15.7714 10.8009L14.7864 12.34H16.6137V11.34ZM17.2537 10.34V9.34H16.7064L16.4114 9.80095L17.2537 10.34ZM19.5137 10.8L19.0586 11.6904L19.0665 11.6945L19.0745 11.6984L19.5137 10.8ZM20.8537 11.98L19.9941 12.4911L19.9992 12.4996L20.0044 12.5079L20.8537 11.98ZM19.9937 16.34L19.439 15.5079L19.4331 15.5119L19.9937 16.34ZM15.1937 17.18L15.2675 16.1827L15.2491 16.1814L15.2307 16.1807L15.1937 17.18ZM13.1337 16.88L12.859 17.8415L12.875 17.8461L12.8911 17.8501L13.1337 16.88ZM12.4537 5.22L11.7466 4.51289L11.7258 4.53367L11.7063 4.55564L12.4537 5.22ZM12.9537 4.96L13.1962 5.93014L13.2161 5.92516L13.2358 5.91936L12.9537 4.96ZM14.3937 4.7L14.4724 5.6969L14.484 5.69598L14.4957 5.69478L14.3937 4.7ZM19.5737 5.44L19.0282 6.27819L19.0377 6.28421L19.5737 5.44ZM20.4137 9.46L19.5499 8.95611L19.5454 8.96386L20.4137 9.46ZM19.0937 10.6L19.5166 11.5062L19.5251 11.5021L19.0937 10.6ZM16.6737 11.02L15.6895 11.1972L15.8376 12.02H16.6737V11.02ZM16.4937 10.02V9.02H15.2976L15.5095 10.1972L16.4937 10.02ZM18.4937 9.48L19.1156 10.2631L19.1225 10.2576L19.1294 10.2519L18.4937 9.48ZM18.3737 6.46L17.834 7.30188L17.8465 7.30987L17.8592 7.31749L18.3737 6.46ZM14.8537 6.02L14.9304 7.01705L14.9494 7.01559L14.9683 7.01341L14.8537 6.02ZM13.8937 6.14L13.7148 5.15613L12.8937 5.30542V6.14H13.8937ZM13.8937 15.66H12.8937V16.4731L13.6897 16.639L13.8937 15.66ZM14.9937 15.82L14.8973 16.8154L14.9003 16.8156L14.9937 15.82ZM18.7937 15.32L19.3393 16.158L19.3393 16.158L18.7937 15.32ZM18.8737 11.96L18.2415 12.7349L18.2526 12.7439L18.264 12.7526L18.8737 11.96ZM17.9137 10.02V11.34H19.9137V10.02H17.9137ZM18.9137 10.34H13.4137V12.34H18.9137V10.34ZM14.4137 11.34V10.02H12.4137V11.34H14.4137ZM13.4137 11.02H18.9137V9.02H13.4137V11.02ZM17.4559 11.8791L18.0959 10.8791L16.4114 9.80095L15.7714 10.8009L17.4559 11.8791ZM17.2537 11.34C18.0543 11.34 18.6396 11.4763 19.0586 11.6904L19.9688 9.90957C19.1878 9.51039 18.2664 9.34 17.2537 9.34V11.34ZM19.0745 11.6984C19.5289 11.9206 19.8157 12.1909 19.9941 12.4911L21.7132 11.4689C21.305 10.7824 20.6984 10.2661 19.9529 9.90162L19.0745 11.6984ZM20.0044 12.5079C20.2069 12.8338 20.3137 13.2024 20.3137 13.64H22.3137C22.3137 12.851 22.1137 12.1129 21.703 11.4521L20.0044 12.5079ZM20.3137 13.64C20.3137 14.5763 19.9962 15.1365 19.439 15.5079L20.5484 17.1721C21.7511 16.3702 22.3137 15.1303 22.3137 13.64H20.3137ZM19.4331 15.5119C18.7992 15.941 17.7878 16.22 16.2737 16.22V18.22C17.9862 18.22 19.4548 17.9123 20.5542 17.1681L19.4331 15.5119ZM16.2737 16.22C15.9384 16.22 15.603 16.2076 15.2675 16.1827L15.1198 18.1773C15.5043 18.2058 15.889 18.22 16.2737 18.22V16.22ZM15.2307 16.1807C14.9082 16.1687 14.5933 16.1389 14.2857 16.0916L13.9816 18.0684C14.3674 18.1277 14.7592 18.1646 15.1567 18.1793L15.2307 16.1807ZM14.2857 16.0916C13.9676 16.0427 13.6645 15.9819 13.3762 15.9099L12.8911 17.8501C13.2428 17.9381 13.6064 18.0107 13.9816 18.0684L14.2857 16.0916ZM13.4084 15.9185C13.3269 15.8952 13.2778 15.8728 13.2518 15.8583C13.2268 15.8444 13.2288 15.8411 13.2422 15.8557C13.2571 15.8721 13.2736 15.8973 13.2845 15.9268C13.2949 15.9549 13.2937 15.9694 13.2937 15.96H11.2937C11.2937 16.4113 11.4409 16.8491 11.7652 17.2043C12.0708 17.539 12.4692 17.7302 12.859 17.8415L13.4084 15.9185ZM13.2937 15.96V5.72H11.2937V15.96H13.2937ZM13.2937 5.72C13.2937 5.69495 13.297 5.70576 13.2861 5.73977C13.2741 5.77722 13.2485 5.83104 13.2011 5.88436L11.7063 4.55564C11.3897 4.91179 11.2937 5.34359 11.2937 5.72H13.2937ZM13.1608 5.92711C13.1413 5.94662 13.1277 5.95341 13.13 5.95222C13.1333 5.9505 13.1529 5.94096 13.1962 5.93014L12.7111 3.98986C12.3729 4.07441 12.0274 4.23209 11.7466 4.51289L13.1608 5.92711ZM13.2358 5.91936C13.618 5.80695 14.0295 5.73186 14.4724 5.6969L14.315 3.7031C13.7445 3.74814 13.196 3.84638 12.6715 4.00063L13.2358 5.91936ZM14.4957 5.69478C14.978 5.64531 15.497 5.62 16.0537 5.62V3.62C15.437 3.62 14.8493 3.64802 14.2916 3.70522L14.4957 5.69478ZM16.0537 5.62C17.4578 5.62 18.413 5.87775 19.0282 6.27814L20.1191 4.60186C19.0544 3.90892 17.6628 3.62 16.0537 3.62V5.62ZM19.0377 6.28421C19.5522 6.61092 19.8337 7.09001 19.8337 7.9H21.8337C21.8337 6.49665 21.2751 5.33575 20.1097 4.59579L19.0377 6.28421ZM19.8337 7.9C19.8337 8.28439 19.74 8.63031 19.5499 8.95613L21.2775 9.96387C21.6474 9.32969 21.8337 8.63561 21.8337 7.9H19.8337ZM19.5454 8.96386C19.4035 9.21223 19.1408 9.469 18.6622 9.69787L19.5251 11.5021C20.2733 11.1443 20.8905 10.6411 21.2819 9.95614L19.5454 8.96386ZM18.6708 9.69382C18.2547 9.888 17.611 10.02 16.6737 10.02V12.02C17.763 12.02 18.7327 11.872 19.5166 11.5062L18.6708 9.69382ZM17.6579 10.8428L17.4779 9.84285L15.5095 10.1972L15.6895 11.1972L17.6579 10.8428ZM16.4937 11.02C17.4877 11.02 18.4142 10.8201 19.1156 10.2631L17.8718 8.69689C17.6665 8.85989 17.2597 9.02 16.4937 9.02V11.02ZM19.1294 10.2519C19.8412 9.66572 20.1737 8.85412 20.1737 7.94H18.1737C18.1737 8.33254 18.0528 8.54761 17.858 8.70807L19.1294 10.2519ZM20.1737 7.94C20.1737 6.95268 19.7481 6.11844 18.8882 5.60251L17.8592 7.31749C18.066 7.44156 18.1737 7.59399 18.1737 7.94H20.1737ZM18.9133 5.61812C18.1578 5.13381 17.1581 4.96 16.0537 4.96V6.96C17.0026 6.96 17.5495 7.11952 17.834 7.30188L18.9133 5.61812ZM16.0537 4.96C15.5727 4.96 15.133 4.98113 14.739 5.02659L14.9683 7.01341C15.2676 6.97887 15.628 6.96 16.0537 6.96V4.96ZM14.777 5.02294C14.4015 5.05183 14.0469 5.09574 13.7148 5.15613L14.0726 7.12387C14.3271 7.07759 14.6125 7.04151 14.9304 7.01705L14.777 5.02294ZM12.8937 6.14V15.66H14.8937V6.14H12.8937ZM13.6897 16.639C14.0533 16.7147 14.457 16.7727 14.8973 16.8153L15.09 14.8246C14.7037 14.7873 14.3741 14.7386 14.0976 14.681L13.6897 16.639ZM14.9003 16.8156C15.3579 16.8585 15.8157 16.88 16.2737 16.88V14.88C15.8783 14.88 15.4828 14.8615 15.087 14.8244L14.9003 16.8156ZM16.2737 16.88C17.4655 16.88 18.5318 16.6838 19.3393 16.158L18.248 14.482C17.9089 14.7028 17.2952 14.88 16.2737 14.88V16.88ZM19.3393 16.158C20.2369 15.5735 20.6537 14.6597 20.6537 13.6H18.6537C18.6537 14.087 18.4971 14.3198 18.248 14.482L19.3393 16.158ZM20.6537 13.6C20.6537 12.6167 20.2653 11.7688 19.4834 11.1674L18.264 12.7526C18.5221 12.9512 18.6537 13.1966 18.6537 13.6H20.6537ZM19.5058 11.1851C18.7476 10.5666 17.7278 10.34 16.6137 10.34V12.34C17.4995 12.34 17.9864 12.5267 18.2415 12.7349L19.5058 11.1851Z" fill="#7469B6" mask="url(#path-5-outside-2_1_14)"/>
</g>
<g filter="url(#filter4_d_1_14)">
<mask id="path-7-outside-3_1_14" maskUnits="userSpaceOnUse" x="3" y="12" width="14" height="16" fill="black">
<rect fill="white" x="3" y="12" width="14" height="16"/>
<path d="M10.042 15.1H9.96203C9.76203 15.66 9.52203 16.3267 9.24203 17.1C8.97536 17.8733 8.69536 18.6733 8.40203 19.5C8.12203 20.3133 7.85536 21.0733 7.60203 21.78L7.50203 22.08C7.42203 22.32 7.32203 22.62 7.20203 22.98C7.08203 23.34 6.95536 23.72 6.82203 24.12C6.6887 24.5067 6.56203 24.8733 6.44203 25.22C6.32203 25.5533 6.2287 25.8267 6.16203 26.04C6.0687 26.08 5.9687 26.1067 5.86203 26.12C5.7687 26.1467 5.6487 26.16 5.50203 26.16C5.2887 26.16 5.09536 26.1067 4.92203 26C4.76203 25.88 4.68203 25.6933 4.68203 25.44C4.68203 25.32 4.70203 25.2 4.74203 25.08C4.78203 24.9467 4.8287 24.8067 4.88203 24.66C5.04203 24.2067 5.23536 23.6533 5.46203 23C5.70203 22.3467 5.96203 21.6333 6.24203 20.86C6.52203 20.0867 6.81536 19.2933 7.12203 18.48C7.4287 17.6667 7.7287 16.8733 8.02203 16.1C8.31536 15.3267 8.5887 14.62 8.84203 13.98C8.9487 13.9267 9.1087 13.8733 9.32203 13.82C9.53537 13.7667 9.75537 13.74 9.98203 13.74C10.2487 13.74 10.502 13.78 10.742 13.86C10.9954 13.94 11.1554 14.0733 11.222 14.26C11.542 15.0333 11.882 15.9133 12.242 16.9C12.6154 17.8733 12.9887 18.8933 13.362 19.96C13.7354 21.0133 14.0887 22.04 14.422 23.04C14.7687 24.04 15.0754 24.9467 15.342 25.76C15.2487 25.88 15.122 25.9733 14.962 26.04C14.8154 26.12 14.6487 26.16 14.462 26.16C14.2087 26.16 14.0154 26.1067 13.882 26C13.7487 25.88 13.6354 25.6867 13.542 25.42L12.442 22.16L12.282 21.6C12.0154 20.7867 11.7354 19.9667 11.442 19.14C11.162 18.3133 10.8954 17.5467 10.642 16.84C10.402 16.1333 10.202 15.5533 10.042 15.1ZM6.72203 22.76L7.24203 21.42H12.822L13.142 22.76H6.72203Z"/>
</mask>
<path d="M10.042 15.1H9.96203C9.76203 15.66 9.52203 16.3267 9.24203 17.1C8.97536 17.8733 8.69536 18.6733 8.40203 19.5C8.12203 20.3133 7.85536 21.0733 7.60203 21.78L7.50203 22.08C7.42203 22.32 7.32203 22.62 7.20203 22.98C7.08203 23.34 6.95536 23.72 6.82203 24.12C6.6887 24.5067 6.56203 24.8733 6.44203 25.22C6.32203 25.5533 6.2287 25.8267 6.16203 26.04C6.0687 26.08 5.9687 26.1067 5.86203 26.12C5.7687 26.1467 5.6487 26.16 5.50203 26.16C5.2887 26.16 5.09536 26.1067 4.92203 26C4.76203 25.88 4.68203 25.6933 4.68203 25.44C4.68203 25.32 4.70203 25.2 4.74203 25.08C4.78203 24.9467 4.8287 24.8067 4.88203 24.66C5.04203 24.2067 5.23536 23.6533 5.46203 23C5.70203 22.3467 5.96203 21.6333 6.24203 20.86C6.52203 20.0867 6.81536 19.2933 7.12203 18.48C7.4287 17.6667 7.7287 16.8733 8.02203 16.1C8.31536 15.3267 8.5887 14.62 8.84203 13.98C8.9487 13.9267 9.1087 13.8733 9.32203 13.82C9.53537 13.7667 9.75537 13.74 9.98203 13.74C10.2487 13.74 10.502 13.78 10.742 13.86C10.9954 13.94 11.1554 14.0733 11.222 14.26C11.542 15.0333 11.882 15.9133 12.242 16.9C12.6154 17.8733 12.9887 18.8933 13.362 19.96C13.7354 21.0133 14.0887 22.04 14.422 23.04C14.7687 24.04 15.0754 24.9467 15.342 25.76C15.2487 25.88 15.122 25.9733 14.962 26.04C14.8154 26.12 14.6487 26.16 14.462 26.16C14.2087 26.16 14.0154 26.1067 13.882 26C13.7487 25.88 13.6354 25.6867 13.542 25.42L12.442 22.16L12.282 21.6C12.0154 20.7867 11.7354 19.9667 11.442 19.14C11.162 18.3133 10.8954 17.5467 10.642 16.84C10.402 16.1333 10.202 15.5533 10.042 15.1ZM6.72203 22.76L7.24203 21.42H12.822L13.142 22.76H6.72203Z" fill="#FFE6E6"/>
<path d="M10.042 15.1L10.985 14.7672L10.7495 14.1H10.042V15.1ZM9.96203 15.1V14.1H9.25731L9.02029 14.7637L9.96203 15.1ZM9.24203 17.1L8.30177 16.7596L8.29916 16.7668L8.29666 16.774L9.24203 17.1ZM8.40203 19.5L7.45956 19.1656L7.45649 19.1745L8.40203 19.5ZM7.60203 21.78L6.66069 21.4425L6.6569 21.4531L6.65335 21.4638L7.60203 21.78ZM7.50203 22.08L6.55335 21.7638L6.55335 21.7638L7.50203 22.08ZM7.20203 22.98L6.25335 22.6638L6.25335 22.6638L7.20203 22.98ZM6.82203 24.12L7.76745 24.446L7.77071 24.4362L6.82203 24.12ZM6.44203 25.22L7.38299 25.5587L7.38702 25.5471L6.44203 25.22ZM6.16203 26.04L6.55595 26.9591L6.97917 26.7778L7.11651 26.3383L6.16203 26.04ZM5.86203 26.12L5.738 25.1277L5.66147 25.1373L5.58731 25.1585L5.86203 26.12ZM4.92203 26L4.32203 26.8L4.3588 26.8276L4.39793 26.8517L4.92203 26ZM4.74203 25.08L5.69071 25.3962L5.6955 25.3819L5.69986 25.3673L4.74203 25.08ZM4.88203 24.66L5.82187 25.0018L5.82502 24.9928L4.88203 24.66ZM5.46203 23L4.52336 22.6552L4.52024 22.6637L4.51727 22.6722L5.46203 23ZM6.24203 20.86L7.1823 21.2004L7.1823 21.2004L6.24203 20.86ZM8.02203 16.1L7.08703 15.7453L7.08703 15.7453L8.02203 16.1ZM8.84203 13.98L8.39482 13.0856L8.05291 13.2565L7.91222 13.612L8.84203 13.98ZM9.32203 13.82L9.56457 14.7901L9.56457 14.7901L9.32203 13.82ZM10.742 13.86L10.4258 14.8087L10.4333 14.8112L10.4409 14.8136L10.742 13.86ZM11.222 14.26L10.2803 14.5963L10.2886 14.6196L10.298 14.6424L11.222 14.26ZM12.242 16.9L11.3026 17.2428L11.3054 17.2505L11.3084 17.2581L12.242 16.9ZM13.362 19.96L12.4182 20.2904L12.4195 20.2941L13.362 19.96ZM14.422 23.04L13.4733 23.3563L13.4772 23.3675L14.422 23.04ZM15.342 25.76L16.1314 26.3739L16.458 25.954L16.2923 25.4484L15.342 25.76ZM14.962 26.04L14.5774 25.1169L14.5291 25.137L14.4832 25.1621L14.962 26.04ZM13.882 26L13.2131 26.7433L13.2347 26.7627L13.2573 26.7809L13.882 26ZM13.542 25.42L12.5945 25.7397L12.5982 25.7504L13.542 25.42ZM12.442 22.16L11.4805 22.4347L11.487 22.4574L11.4945 22.4797L12.442 22.16ZM12.282 21.6L13.2436 21.3253L13.2383 21.3068L13.2323 21.2884L12.282 21.6ZM11.442 19.14L10.4949 19.4608L10.4972 19.4676L10.4996 19.4744L11.442 19.14ZM10.642 16.84L9.69515 17.1616L9.69785 17.1695L9.70069 17.1775L10.642 16.84ZM6.72203 22.76L5.78977 22.3982L5.26132 23.76H6.72203V22.76ZM7.24203 21.42V20.42H6.55744L6.30977 21.0582L7.24203 21.42ZM12.822 21.42L13.7947 21.1877L13.6113 20.42H12.822V21.42ZM13.142 22.76V23.76H14.409L14.1147 22.5277L13.142 22.76ZM10.042 14.1H9.96203V16.1H10.042V14.1ZM9.02029 14.7637C8.82092 15.3219 8.58144 15.9871 8.30177 16.7596L10.1823 17.4404C10.4626 16.6662 10.7031 15.9981 10.9038 15.4363L9.02029 14.7637ZM8.29666 16.774C8.03103 17.5443 7.75201 18.3415 7.4596 19.1656L9.34446 19.8344C9.63872 19.0051 9.9197 18.2023 10.1874 17.426L8.29666 16.774ZM7.45649 19.1745C7.17767 19.9844 6.91241 20.7404 6.66069 21.4425L8.54337 22.1175C8.79832 21.4063 9.06639 20.6423 9.34757 19.8255L7.45649 19.1745ZM6.65335 21.4638L6.55335 21.7638L8.45071 22.3962L8.55071 22.0962L6.65335 21.4638ZM6.55335 21.7638C6.47335 22.0038 6.37335 22.3038 6.25335 22.6638L8.15071 23.2962C8.27071 22.9362 8.37071 22.6362 8.45071 22.3962L6.55335 21.7638ZM6.25335 22.6638C6.13335 23.0238 6.00668 23.4038 5.87335 23.8038L7.77071 24.4362C7.90405 24.0362 8.03071 23.6562 8.15071 23.2962L6.25335 22.6638ZM5.87666 23.794C5.74344 24.1803 5.6169 24.5466 5.49705 24.8929L7.38702 25.5471C7.50716 25.2 7.63396 24.833 7.7674 24.446L5.87666 23.794ZM5.50114 24.8813C5.37875 25.2213 5.28016 25.5094 5.20755 25.7417L7.11651 26.3383C7.17723 26.144 7.26531 25.8854 7.38292 25.5587L5.50114 24.8813ZM5.76811 25.1209C5.76578 25.1219 5.75717 25.1253 5.738 25.1277L5.98607 27.1123C6.18023 27.088 6.37162 27.0381 6.55595 26.9591L5.76811 25.1209ZM5.58731 25.1585C5.60551 25.1533 5.60883 25.1542 5.5916 25.1561C5.57505 25.158 5.54599 25.16 5.50203 25.16V27.16C5.69936 27.16 5.92095 27.1432 6.13675 27.0815L5.58731 25.1585ZM5.50203 25.16C5.46442 25.16 5.45409 25.1532 5.44613 25.1483L4.39793 26.8517C4.73664 27.0601 5.11298 27.16 5.50203 27.16V25.16ZM5.52203 25.2C5.58439 25.2468 5.63331 25.311 5.66118 25.3761C5.68597 25.4339 5.68203 25.4637 5.68203 25.44H3.68203C3.68203 25.9154 3.84431 26.4417 4.32203 26.8L5.52203 25.2ZM5.68203 25.44C5.68203 25.4332 5.68285 25.4198 5.69071 25.3962L3.79335 24.7638C3.72121 24.9802 3.68203 25.2068 3.68203 25.44H5.68203ZM5.69986 25.3673C5.73376 25.2543 5.77425 25.1326 5.82182 25.0017L3.94224 24.3183C3.88314 24.4808 3.8303 24.639 3.78421 24.7927L5.69986 25.3673ZM5.82502 24.9928C5.98581 24.5373 6.17977 23.9821 6.40679 23.3278L4.51727 22.6722C4.29096 23.3245 4.09825 23.8761 3.93904 24.3272L5.82502 24.9928ZM6.4007 23.3448C6.64132 22.6898 6.90186 21.975 7.1823 21.2004L5.30177 20.5196C5.0222 21.2917 4.76274 22.0035 4.52336 22.6552L6.4007 23.3448ZM7.1823 21.2004C7.46072 20.4315 7.75253 19.6423 8.05773 18.8328L6.18633 18.1272C5.8782 18.9444 5.58334 19.7419 5.30177 20.5196L7.1823 21.2004ZM8.05773 18.8328C8.36417 18.0201 8.66394 17.2273 8.95703 16.4547L7.08703 15.7453C6.79346 16.5193 6.49322 17.3133 6.18633 18.1272L8.05773 18.8328ZM8.95703 16.4547C9.24899 15.6849 9.52058 14.9828 9.77184 14.348L7.91222 13.612C7.65682 14.2572 7.38174 14.9684 7.08703 15.7453L8.95703 16.4547ZM9.28925 14.8744C9.28693 14.8756 9.30636 14.866 9.35826 14.8487C9.40799 14.8321 9.47574 14.8123 9.56457 14.7901L9.0795 12.8499C8.84403 12.9087 8.60001 12.983 8.39482 13.0856L9.28925 14.8744ZM9.56457 14.7901C9.69617 14.7572 9.8346 14.74 9.98203 14.74V12.74C9.67613 12.74 9.37456 12.7761 9.0795 12.8499L9.56457 14.7901ZM9.98203 14.74C10.1471 14.74 10.2932 14.7645 10.4258 14.8087L11.0583 12.9113C10.7109 12.7955 10.3503 12.74 9.98203 12.74V14.74ZM10.4409 14.8136C10.4763 14.8248 10.4551 14.8243 10.4118 14.7882C10.3618 14.7465 10.3102 14.68 10.2803 14.5963L12.1638 13.9237C11.9584 13.3487 11.4852 13.046 11.0432 12.9064L10.4409 14.8136ZM10.298 14.6424C10.6114 15.3998 10.9463 16.2662 11.3026 17.2428L13.1815 16.5572C12.8178 15.5604 12.4726 14.6669 12.146 13.8776L10.298 14.6424ZM11.3084 17.2581C11.6779 18.2215 12.0478 19.2322 12.4182 20.2904L14.3059 19.6296C13.9296 18.5544 13.5529 17.5251 13.1757 16.5419L11.3084 17.2581ZM12.4195 20.2941C12.7908 21.3418 13.1421 22.3625 13.4733 23.3562L15.3707 22.7238C15.0353 21.7175 14.6799 20.6848 14.3046 19.6259L12.4195 20.2941ZM13.4772 23.3675C13.8224 24.3634 14.1272 25.2646 14.3918 26.0716L16.2923 25.4484C16.0235 24.6287 15.715 23.7166 15.3669 22.7125L13.4772 23.3675ZM14.5527 25.1461C14.5643 25.1312 14.5759 25.1208 14.5838 25.1149C14.5912 25.1095 14.5908 25.1113 14.5774 25.1169L15.3466 26.9631C15.6433 26.8395 15.918 26.6483 16.1314 26.3739L14.5527 25.1461ZM14.4832 25.1621C14.4858 25.1607 14.4884 25.1595 14.4906 25.1586C14.4929 25.1578 14.494 25.1575 14.4937 25.1576C14.4932 25.1577 14.4837 25.16 14.462 25.16V27.16C14.796 27.16 15.1307 27.0871 15.4409 26.9179L14.4832 25.1621ZM14.462 25.16C14.4028 25.16 14.3838 25.1535 14.393 25.156C14.4045 25.1592 14.4506 25.1743 14.5067 25.2191L13.2573 26.7809C13.6359 27.0837 14.0873 27.16 14.462 27.16V25.16ZM14.551 25.2567C14.577 25.2801 14.5768 25.2884 14.5597 25.2593C14.5429 25.2305 14.5165 25.177 14.4859 25.0896L12.5982 25.7504C12.7182 26.0931 12.903 26.4642 13.2131 26.7433L14.551 25.2567ZM14.4895 25.1003L13.3895 21.8403L11.4945 22.4797L12.5945 25.7397L14.4895 25.1003ZM13.4036 21.8853L13.2436 21.3253L11.3205 21.8747L11.4805 22.4347L13.4036 21.8853ZM13.2323 21.2884C12.963 20.4673 12.6804 19.6397 12.3845 18.8056L10.4996 19.4744C10.7903 20.2937 11.0677 21.1061 11.3318 21.9116L13.2323 21.2884ZM12.3892 18.8192C12.1076 17.9878 11.839 17.2155 11.5834 16.5025L9.70069 17.1775C9.95175 17.8778 10.2165 18.6388 10.4949 19.4608L12.3892 18.8192ZM11.5889 16.5184C11.3482 15.8098 11.1469 15.2257 10.985 14.7672L9.09904 15.4328C9.25721 15.881 9.45581 16.4569 9.69515 17.1616L11.5889 16.5184ZM7.6543 23.1218L8.1743 21.7818L6.30977 21.0582L5.78977 22.3982L7.6543 23.1218ZM7.24203 22.42H12.822V20.42H7.24203V22.42ZM11.8494 21.6523L12.1694 22.9923L14.1147 22.5277L13.7947 21.1877L11.8494 21.6523ZM13.142 21.76H6.72203V23.76H13.142V21.76Z" fill="#7469B6" mask="url(#path-7-outside-3_1_14)"/>
</g>
<defs>
<filter id="filter0_d_1_14" x="34.0282" y="12.788" width="49.1426" height="20.04" filterUnits="userSpaceOnUse" color-interpolation-filters="sRGB">
<feFlood flood-opacity="0" result="BackgroundImageFix"/>
<feColorMatrix in="SourceAlpha" type="matrix" values="0 0 0 0 0 0 0 0 0 0 0 0 0 0 0 0 0 0 127 0" result="hardAlpha"/>
<feOffset dy="4"/>
<feGaussianBlur stdDeviation="2"/>
<feComposite in2="hardAlpha" operator="out"/>
<feColorMatrix type="matrix" values="0 0 0 0 0 0 0 0 0 0 0 0 0 0 0 0 0 0 0.25 0"/>
<feBlend mode="normal" in2="BackgroundImageFix" result="effect1_dropShadow_1_14"/>
<feBlend mode="normal" in="SourceGraphic" in2="effect1_dropShadow_1_14" result="shape"/>
</filter>
<filter id="filter1_d_1_14" x="81.2191" y="16.3753" width="17.5617" height="15.2255" filterUnits="userSpaceOnUse" color-interpolation-filters="sRGB">
<feFlood flood-opacity="0" result="BackgroundImageFix"/>
<feColorMatrix in="SourceAlpha" type="matrix" values="0 0 0 0 0 0 0 0 0 0 0 0 0 0 0 0 0 0 127 0" result="hardAlpha"/>
<feOffset dy="4"/>
<feGaussianBlur stdDeviation="2"/>
<feComposite in2="hardAlpha" operator="out"/>
<feColorMatrix type="matrix" values="0 0 0 0 0 0 0 0 0 0 0 0 0 0 0 0 0 0 0.25 0"/>
<feBlend mode="normal" in2="BackgroundImageFix" result="effect1_dropShadow_1_14"/>
<feBlend mode="normal" in="SourceGraphic" in2="effect1_dropShadow_1_14" result="shape"/>
</filter>
<filter id="filter2_d_1_14" x="14.7011" y="11.58" width="17.7" height="20.68" filterUnits="userSpaceOnUse" color-interpolation-filters="sRGB">
<feFlood flood-opacity="0" result="BackgroundImageFix"/>
<feColorMatrix in="SourceAlpha" type="matrix" values="0 0 0 0 0 0 0 0 0 0 0 0 0 0 0 0 0 0 127 0" result="hardAlpha"/>
<feOffset dy="4"/>
<feGaussianBlur stdDeviation="2"/>
<feComposite in2="hardAlpha" operator="out"/>
<feColorMatrix type="matrix" values="0 0 0 0 0 0 0 0 0 0 0 0 0 0 0 0 0 0 0.25 0"/>
<feBlend mode="normal" in2="BackgroundImageFix" result="effect1_dropShadow_1_14"/>
<feBlend mode="normal" in="SourceGraphic" in2="effect1_dropShadow_1_14" result="shape"/>
</filter>
<filter id="filter3_d_1_14" x="8.29367" y="4.62" width="17.02" height="20.6" filterUnits="userSpaceOnUse" color-interpolation-filters="sRGB">
<feFlood flood-opacity="0" result="BackgroundImageFix"/>
<feColorMatrix in="SourceAlpha" type="matrix" values="0 0 0 0 0 0 0 0 0 0 0 0 0 0 0 0 0 0 127 0" result="hardAlpha"/>
<feOffset dy="4"/>
<feGaussianBlur stdDeviation="2"/>
<feComposite in2="hardAlpha" operator="out"/>
<feColorMatrix type="matrix" values="0 0 0 0 0 0 0 0 0 0 0 0 0 0 0 0 0 0 0.25 0"/>
<feBlend mode="normal" in2="BackgroundImageFix" result="effect1_dropShadow_1_14"/>
<feBlend mode="normal" in="SourceGraphic" in2="effect1_dropShadow_1_14" result="shape"/>
</filter>
<filter id="filter4_d_1_14" x="0.682032" y="13.74" width="18.66" height="20.42" filterUnits="userSpaceOnUse" color-interpolation-filters="sRGB">
<feFlood flood-opacity="0" result="BackgroundImageFix"/>
<feColorMatrix in="SourceAlpha" type="matrix" values="0 0 0 0 0 0 0 0 0 0 0 0 0 0 0 0 0 0 127 0" result="hardAlpha"/>
<feOffset dy="4"/>
<feGaussianBlur stdDeviation="2"/>
<feComposite in2="hardAlpha" operator="out"/>
<feColorMatrix type="matrix" values="0 0 0 0 0 0 0 0 0 0 0 0 0 0 0 0 0 0 0.25 0"/>
<feBlend mode="normal" in2="BackgroundImageFix" result="effect1_dropShadow_1_14"/>
<feBlend mode="normal" in="SourceGraphic" in2="effect1_dropShadow_1_14" result="shape"/>
</filter>
</defs>
</svg>
