<svg width="66" height="66" viewBox="0 0 66 66" fill="none" xmlns="http://www.w3.org/2000/svg">
<path d="M57.9596 20.3262C55.6953 13.9738 51.2119 8.60503 45.2988 5.16518C39.3857 1.72534 32.4223 0.435045 25.6347 1.52153C18.8471 2.60802 12.6707 6.0016 8.19303 11.1047C3.71539 16.2078 1.22372 22.6931 1.1568 29.4186C1.08987 36.1441 3.45197 42.6784 7.82715 47.871C12.2023 53.0635 18.31 56.5812 25.0746 57.8047C31.8392 59.0281 38.8269 57.8788 44.8073 54.5592C50.7876 51.2395 55.377 45.9624 57.7673 39.6571L37.6698 30.0063L57.9596 20.3262Z" fill="#7469B6"/>
<path d="M44.8304 36.5937L41.9997 38.0613L44.9351 39.3063L64.0983 47.4335C61.9494 52.8109 58.0266 57.3951 52.8954 60.4669C47.353 63.7849 40.7627 65.1207 34.2875 64.2315C27.8126 63.3424 21.8831 60.2878 17.5382 55.6201C13.1945 50.9538 10.7119 44.9746 10.513 38.7376C10.314 32.5009 12.4107 26.3887 16.447 21.4777C20.4845 16.5652 26.2061 13.1683 32.6112 11.9C39.0168 10.6316 45.6807 11.5767 51.4263 14.5633C56.7526 17.332 60.9659 21.6863 63.4532 26.938L44.8304 36.5937Z" fill="#FFE6E6" stroke="#7469B6" stroke-width="3"/>
<path d="M37.0531 20.7992C37.2746 19.3969 37.687 18.2348 38.2177 17.5175C38.7484 16.8002 39.3634 16.5738 39.9544 16.8781C40.5454 17.1823 41.0744 17.9978 41.4484 19.1808C41.8224 20.3639 42.0173 21.8386 41.9988 23.3454C41.9803 24.8522 41.7496 26.2944 41.3473 27.418C40.9451 28.5416 40.397 29.2746 39.7997 29.4878C39.2024 29.7011 38.5941 29.381 38.0819 28.5838C37.5698 27.7867 37.1867 26.5637 37 25.1301L38.7964 23.1492L37.0531 20.7992Z" fill="#7469B6"/>
<path d="M48.9469 20.7992C48.7254 19.3969 48.313 18.2348 47.7823 17.5175C47.2516 16.8002 46.6366 16.5738 46.0456 16.8781C45.4546 17.1823 44.9256 17.9978 44.5516 19.1808C44.1776 20.3639 43.9827 21.8386 44.0012 23.3454C44.0197 24.8522 44.2504 26.2944 44.6527 27.418C45.0549 28.5416 45.603 29.2746 46.2003 29.4878C46.7976 29.7011 47.4059 29.381 47.9181 28.5838C48.4302 27.7867 48.8133 26.5637 49 25.1301L47.2036 23.1492L48.9469 20.7992Z" fill="#7469B6"/>
<path d="M58.9172 48.8119L38.1738 39.9833L37.2981 41.5496L58.1068 50.6596L58.9172 48.8119Z" fill="#7469B6"/>
</svg>
